<?xml version="1.0" encoding="utf-8"?>
<!-- Generator: Adobe Illustrator 23.0.6, SVG Export Plug-In . SVG Version: 6.00 Build 0)  -->
<svg version="1.1" id="Capa_1" xmlns="http://www.w3.org/2000/svg" xmlns:xlink="http://www.w3.org/1999/xlink" x="0px" y="0px"
	 viewBox="0 0 302.57 107.01" style="enable-background:new 0 0 302.57 107.01;" xml:space="preserve">
<style type="text/css">
	.st0{fill:#2E353A;}
	.st1{fill:#43A5DD;}
	.st2{fill-rule:evenodd;clip-rule:evenodd;fill:#E30E5A;}
	.st3{fill-rule:evenodd;clip-rule:evenodd;fill:#43A5DD;}
	.st4{fill-rule:evenodd;clip-rule:evenodd;fill:#2E353A;}
	.st5{fill-rule:evenodd;clip-rule:evenodd;fill:#FFEA22;}
	.st6{fill-rule:evenodd;clip-rule:evenodd;fill:#45494D;}
	.st7{fill-rule:evenodd;clip-rule:evenodd;fill:#F3F5F7;}
</style>
<rect x="575.86" y="-254.84" class="st0" width="792" height="612"/>
<g>
	<g>
		<path class="st1" d="M103.97,92.79c0.63,0,1.18,0.08,1.64,0.23c0.46,0.15,0.84,0.36,1.14,0.63c0.3,0.27,0.52,0.59,0.66,0.97
			c0.14,0.37,0.21,0.78,0.21,1.22c0,0.46-0.07,0.89-0.22,1.27c-0.15,0.39-0.37,0.72-0.68,1c-0.3,0.28-0.68,0.49-1.14,0.65
			c-0.46,0.15-1,0.23-1.61,0.23h-1.21v3.24h-1.91v-9.44H103.97z M103.97,97.48c0.6,0,1.04-0.15,1.32-0.44
			c0.28-0.29,0.42-0.7,0.42-1.21c0-0.23-0.04-0.45-0.11-0.64c-0.07-0.19-0.18-0.36-0.32-0.49c-0.14-0.14-0.32-0.24-0.54-0.32
			c-0.22-0.07-0.47-0.11-0.77-0.11h-1.21v3.21H103.97z"/>
		<path class="st1" d="M115.01,100.66c0.31,0,0.59-0.05,0.84-0.16c0.25-0.11,0.45-0.26,0.62-0.45c0.17-0.2,0.3-0.43,0.39-0.71
			c0.09-0.28,0.13-0.59,0.13-0.94v-5.62h1.91v5.62c0,0.57-0.09,1.1-0.27,1.58c-0.18,0.48-0.44,0.89-0.77,1.24
			c-0.34,0.35-0.74,0.62-1.22,0.81c-0.48,0.19-1.02,0.29-1.63,0.29c-0.6,0-1.15-0.1-1.63-0.29c-0.48-0.2-0.89-0.47-1.23-0.81
			c-0.34-0.35-0.59-0.76-0.77-1.24c-0.18-0.48-0.27-1-0.27-1.58v-5.62h1.91v5.62c0,0.35,0.04,0.66,0.13,0.94
			c0.09,0.28,0.22,0.51,0.39,0.71c0.17,0.19,0.38,0.35,0.62,0.45C114.42,100.61,114.7,100.66,115.01,100.66z"/>
		<path class="st1" d="M126.52,92.79c0.62,0,1.15,0.06,1.59,0.18c0.44,0.12,0.8,0.29,1.08,0.51c0.28,0.22,0.48,0.48,0.61,0.8
			c0.13,0.31,0.19,0.66,0.19,1.05c0,0.22-0.03,0.42-0.09,0.62c-0.06,0.2-0.16,0.39-0.29,0.56c-0.13,0.18-0.3,0.33-0.5,0.48
			c-0.2,0.14-0.45,0.26-0.73,0.36c0.63,0.15,1.09,0.4,1.4,0.74c0.3,0.34,0.45,0.79,0.45,1.33c0,0.4-0.08,0.77-0.23,1.11
			c-0.15,0.34-0.37,0.64-0.66,0.89c-0.29,0.25-0.65,0.45-1.07,0.59c-0.42,0.14-0.91,0.21-1.46,0.21h-3.58v-9.44H126.52z
			 M125.15,94.27v2.55h1.26c0.27,0,0.51-0.02,0.71-0.07c0.21-0.05,0.38-0.12,0.52-0.22c0.14-0.1,0.25-0.23,0.32-0.39
			c0.07-0.16,0.11-0.36,0.11-0.59c0-0.23-0.03-0.43-0.09-0.6c-0.06-0.17-0.16-0.3-0.28-0.4c-0.13-0.1-0.29-0.17-0.48-0.22
			c-0.2-0.05-0.43-0.07-0.69-0.07H125.15z M126.78,100.73c0.31,0,0.56-0.04,0.76-0.11c0.2-0.08,0.36-0.18,0.48-0.3
			c0.12-0.13,0.2-0.27,0.25-0.43c0.05-0.16,0.07-0.33,0.07-0.5c0-0.19-0.03-0.36-0.08-0.51c-0.05-0.15-0.14-0.28-0.27-0.39
			c-0.12-0.11-0.28-0.19-0.48-0.24c-0.2-0.06-0.44-0.08-0.73-0.08h-1.62v2.58H126.78z"/>
		<path class="st1" d="M139.68,100.64v1.59h-5.49v-9.44h1.91v7.85H139.68z"/>
		<path class="st1" d="M145.13,102.23h-1.92v-9.44h1.92V102.23z"/>
		<path class="st1" d="M155.88,99.9c0.11,0,0.2,0.04,0.27,0.12l0.76,0.83c-0.37,0.49-0.84,0.85-1.39,1.11
			c-0.55,0.25-1.21,0.38-1.98,0.38c-0.69,0-1.31-0.12-1.87-0.36c-0.55-0.24-1.02-0.58-1.41-1c-0.39-0.43-0.68-0.94-0.89-1.53
			c-0.21-0.59-0.31-1.23-0.31-1.93c0-0.47,0.05-0.91,0.15-1.34c0.1-0.42,0.24-0.81,0.44-1.17c0.19-0.36,0.42-0.68,0.69-0.96
			c0.27-0.29,0.57-0.53,0.91-0.73c0.34-0.2,0.71-0.36,1.11-0.46c0.4-0.11,0.83-0.16,1.28-0.16c0.34,0,0.66,0.03,0.97,0.09
			c0.3,0.06,0.59,0.15,0.85,0.25c0.26,0.11,0.51,0.24,0.73,0.39c0.22,0.15,0.42,0.32,0.6,0.5l-0.64,0.9
			c-0.04,0.06-0.09,0.11-0.15,0.15c-0.06,0.04-0.14,0.07-0.24,0.07c-0.1,0-0.2-0.04-0.31-0.11c-0.1-0.07-0.23-0.16-0.38-0.25
			c-0.15-0.09-0.34-0.17-0.57-0.25c-0.23-0.07-0.51-0.11-0.86-0.11c-0.39,0-0.74,0.07-1.06,0.21c-0.32,0.14-0.6,0.35-0.83,0.62
			c-0.23,0.27-0.41,0.6-0.54,1c-0.13,0.4-0.19,0.84-0.19,1.35c0,0.51,0.07,0.96,0.21,1.36c0.14,0.4,0.33,0.73,0.57,1.01
			c0.24,0.27,0.52,0.48,0.84,0.62c0.32,0.14,0.66,0.21,1.03,0.21c0.22,0,0.41-0.01,0.59-0.03c0.18-0.02,0.34-0.06,0.49-0.11
			c0.15-0.05,0.29-0.12,0.43-0.2c0.13-0.08,0.27-0.19,0.4-0.31c0.05-0.04,0.1-0.07,0.15-0.1C155.77,99.92,155.82,99.9,155.88,99.9z"
			/>
		<path class="st1" d="M162.32,102.23h-1.92v-9.44h1.92V102.23z"/>
		<path class="st1" d="M175.02,97.5c0,0.69-0.11,1.32-0.34,1.9c-0.23,0.58-0.55,1.08-0.96,1.49c-0.41,0.42-0.91,0.74-1.49,0.98
			c-0.58,0.23-1.23,0.35-1.94,0.35h-3.56v-9.44h3.56c0.71,0,1.36,0.12,1.94,0.35c0.58,0.23,1.08,0.56,1.49,0.98
			c0.41,0.42,0.73,0.92,0.96,1.49C174.91,96.19,175.02,96.82,175.02,97.5z M173.06,97.5c0-0.49-0.06-0.94-0.19-1.33
			c-0.13-0.39-0.31-0.73-0.55-1c-0.24-0.27-0.53-0.48-0.87-0.63c-0.34-0.15-0.73-0.22-1.16-0.22h-1.63v6.38h1.63
			c0.43,0,0.82-0.07,1.16-0.22c0.34-0.14,0.63-0.36,0.87-0.63c0.24-0.28,0.42-0.61,0.55-1C172.99,98.45,173.06,98,173.06,97.5z"/>
		<path class="st1" d="M186.64,102.23h-1.49c-0.17,0-0.3-0.04-0.41-0.12c-0.1-0.08-0.18-0.18-0.23-0.31l-0.62-1.8h-3.68l-0.62,1.8
			c-0.04,0.11-0.12,0.21-0.22,0.3c-0.11,0.09-0.24,0.13-0.4,0.13h-1.5l3.61-9.44h1.96L186.64,102.23z M183.43,98.64l-1-2.89
			c-0.06-0.15-0.12-0.33-0.19-0.53c-0.07-0.2-0.13-0.43-0.19-0.66c-0.06,0.24-0.12,0.47-0.19,0.67c-0.07,0.21-0.13,0.38-0.19,0.54
			l-0.99,2.87H183.43z"/>
		<path class="st1" d="M198.3,97.5c0,0.69-0.11,1.32-0.34,1.9c-0.23,0.58-0.55,1.08-0.96,1.49c-0.41,0.42-0.91,0.74-1.49,0.98
			c-0.58,0.23-1.23,0.35-1.94,0.35h-3.56v-9.44h3.56c0.71,0,1.36,0.12,1.94,0.35c0.58,0.23,1.08,0.56,1.49,0.98
			c0.41,0.42,0.73,0.92,0.96,1.49C198.19,96.19,198.3,96.82,198.3,97.5z M196.34,97.5c0-0.49-0.06-0.94-0.19-1.33
			c-0.13-0.39-0.31-0.73-0.55-1c-0.24-0.27-0.53-0.48-0.87-0.63c-0.34-0.15-0.73-0.22-1.16-0.22h-1.63v6.38h1.63
			c0.43,0,0.82-0.07,1.16-0.22c0.34-0.14,0.63-0.36,0.87-0.63c0.24-0.28,0.42-0.61,0.55-1C196.28,98.45,196.34,98,196.34,97.5z"/>
		<path class="st1" d="M215.93,92.79l-3.72,9.44h-1.73l-3.72-9.44h1.54c0.17,0,0.3,0.04,0.41,0.12c0.1,0.08,0.18,0.18,0.23,0.31
			l2,5.44c0.08,0.2,0.15,0.43,0.23,0.67c0.07,0.24,0.14,0.49,0.21,0.76c0.06-0.26,0.12-0.52,0.18-0.76
			c0.07-0.24,0.14-0.46,0.21-0.67l1.99-5.44c0.04-0.11,0.12-0.21,0.23-0.3c0.11-0.09,0.24-0.13,0.4-0.13H215.93z"/>
		<path class="st1" d="M221.23,102.23h-1.92v-9.44h1.92V102.23z"/>
		<path class="st1" d="M230.68,94.6c-0.06,0.1-0.12,0.17-0.18,0.22c-0.06,0.05-0.14,0.07-0.24,0.07c-0.09,0-0.19-0.03-0.3-0.1
			c-0.11-0.07-0.24-0.14-0.38-0.22c-0.14-0.08-0.31-0.15-0.5-0.22c-0.19-0.07-0.41-0.1-0.66-0.1c-0.44,0-0.77,0.1-0.99,0.3
			c-0.22,0.2-0.33,0.46-0.33,0.79c0,0.21,0.06,0.38,0.18,0.52c0.12,0.14,0.28,0.25,0.48,0.35c0.2,0.1,0.42,0.19,0.67,0.27
			c0.25,0.08,0.51,0.16,0.77,0.26c0.26,0.09,0.52,0.2,0.77,0.33c0.25,0.13,0.47,0.28,0.67,0.47c0.2,0.19,0.36,0.42,0.48,0.7
			c0.12,0.28,0.18,0.61,0.18,1c0,0.43-0.07,0.83-0.22,1.21c-0.15,0.38-0.36,0.7-0.63,0.98c-0.28,0.28-0.62,0.5-1.02,0.66
			c-0.41,0.16-0.87,0.24-1.38,0.24c-0.29,0-0.59-0.03-0.88-0.09c-0.29-0.06-0.57-0.15-0.84-0.25c-0.27-0.11-0.52-0.24-0.76-0.39
			c-0.24-0.15-0.45-0.32-0.63-0.51l0.56-0.92c0.05-0.07,0.11-0.13,0.18-0.17c0.08-0.05,0.16-0.07,0.24-0.07
			c0.11,0,0.24,0.04,0.36,0.13c0.13,0.09,0.27,0.18,0.44,0.29c0.17,0.1,0.36,0.2,0.58,0.29c0.22,0.09,0.48,0.13,0.79,0.13
			c0.45,0,0.79-0.1,1.04-0.31c0.24-0.21,0.37-0.52,0.37-0.93c0-0.24-0.06-0.43-0.18-0.58c-0.12-0.15-0.28-0.27-0.48-0.37
			c-0.19-0.1-0.42-0.19-0.67-0.26c-0.25-0.07-0.51-0.15-0.77-0.24c-0.26-0.09-0.52-0.19-0.77-0.31c-0.25-0.12-0.47-0.28-0.67-0.48
			c-0.19-0.2-0.35-0.45-0.48-0.74c-0.12-0.3-0.18-0.66-0.18-1.1c0-0.35,0.07-0.69,0.2-1.02c0.14-0.33,0.33-0.62,0.6-0.88
			c0.26-0.26,0.59-0.46,0.97-0.62c0.38-0.16,0.83-0.23,1.32-0.23c0.56,0,1.07,0.09,1.55,0.26c0.47,0.18,0.87,0.42,1.2,0.73
			L230.68,94.6z"/>
		<path class="st1" d="M238.94,100.66c0.31,0,0.59-0.05,0.84-0.16c0.25-0.11,0.45-0.26,0.63-0.45c0.17-0.2,0.3-0.43,0.39-0.71
			c0.09-0.28,0.13-0.59,0.13-0.94v-5.62h1.91v5.62c0,0.57-0.09,1.1-0.27,1.58c-0.18,0.48-0.44,0.89-0.77,1.24
			c-0.34,0.35-0.74,0.62-1.22,0.81c-0.48,0.19-1.02,0.29-1.63,0.29c-0.6,0-1.15-0.1-1.63-0.29c-0.48-0.2-0.89-0.47-1.23-0.81
			c-0.34-0.35-0.59-0.76-0.77-1.24c-0.18-0.48-0.27-1-0.27-1.58v-5.62h1.91v5.62c0,0.35,0.04,0.66,0.13,0.94
			c0.09,0.28,0.22,0.51,0.39,0.71c0.17,0.19,0.38,0.35,0.63,0.45C238.35,100.61,238.63,100.66,238.94,100.66z"/>
		<path class="st1" d="M254.91,102.23h-1.49c-0.16,0-0.3-0.04-0.4-0.12c-0.1-0.08-0.18-0.18-0.23-0.31l-0.63-1.8h-3.68l-0.62,1.8
			c-0.04,0.11-0.12,0.21-0.22,0.3c-0.11,0.09-0.24,0.13-0.4,0.13h-1.5l3.61-9.44h1.96L254.91,102.23z M251.7,98.64l-1-2.89
			c-0.06-0.15-0.12-0.33-0.19-0.53c-0.07-0.2-0.13-0.43-0.19-0.66c-0.06,0.24-0.12,0.47-0.19,0.67c-0.07,0.21-0.13,0.38-0.19,0.54
			l-0.99,2.87H251.7z"/>
		<path class="st1" d="M263.77,100.64v1.59h-5.49v-9.44h1.91v7.85H263.77z"/>
	</g>
	<polygon class="st2" points="89.56,0 72.22,89.04 37.21,73.76 89.56,0 	"/>
	<polygon class="st3" points="0,21.28 89.56,0 11.5,47.15 0,21.28 	"/>
	<polygon class="st4" points="35.11,54.84 11.5,47.15 89.56,0 35.11,54.84 	"/>
	<polygon class="st5" points="37.21,73.76 35.11,54.84 89.56,0 37.21,73.76 	"/>
	<path class="st4" d="M254.64,19.01h-3.74c-2.49,0-4.6,0.84-6.31,2.51c-1.71-1.67-3.81-2.51-6.31-2.51h-3.79
		c-2.67,0-4.9,0.96-6.67,2.9c-1.77,1.93-2.66,4.34-2.66,7.23v12.86h6.08V29.14c0-1.12,0.28-2.07,0.83-2.85
		c0.56-0.77,1.36-1.16,2.41-1.16h3.79c1.05,0,1.85,0.39,2.41,1.16c0.56,0.78,0.83,1.73,0.83,2.85v12.86h6.08V29.14
		c0-1.12,0.29-2.07,0.86-2.85c0.57-0.77,1.38-1.16,2.44-1.16h3.74c1.05,0,1.86,0.4,2.43,1.18c0.57,0.79,0.86,1.73,0.86,2.83v12.86
		h6.04V29.14c0-2.83-0.86-5.22-2.59-7.18C259.65,19.99,257.4,19.01,254.64,19.01z"/>
	<path class="st4" d="M130.65,12.95h-19.84c-2.69,0-4.98,0.97-6.87,2.9c-1.9,1.93-2.84,4.24-2.84,6.93v19.21h6.05v-9.74h23.51
		c2.69,0,5.02-0.94,7.01-2.81c1.98-1.87,2.98-4.15,2.98-6.84c0-2.69-0.99-4.97-2.98-6.84C135.67,13.88,133.34,12.95,130.65,12.95z
		 M133.43,25.09c-0.78,0.69-1.7,1.04-2.78,1.04h-23.51v-3.35c0-1.03,0.22-2.03,0.94-2.76c0.72-0.73,1.72-0.96,2.74-0.96h19.84
		c1.01,0,1.93,0.33,2.73,1c0.81,0.67,1.21,1.51,1.21,2.54C134.59,23.57,134.2,24.4,133.43,25.09z"/>
	<path class="st4" d="M220.08,29.3c-1.47-1.22-3.39-1.83-5.74-1.83h-16.88c-1.47,0-2.21-0.4-2.21-1.21c0-0.84,0.74-1.25,2.21-1.25
		H218v-5.99h-20.55c-2.77,0-4.88,0.79-6.32,2.37c-1.21,1.31-1.81,2.94-1.81,4.87c0,2.33,0.8,4.13,2.39,5.41
		c1.47,1.22,3.39,1.83,5.74,1.83h16.88c1.47,0,2.21,0.42,2.21,1.25c0,0.8-0.74,1.21-2.21,1.21h-24.92v6.04h24.92
		c2.36,0,4.27-0.61,5.74-1.83c1.59-1.28,2.39-3.08,2.39-5.41C222.47,32.43,221.67,30.61,220.08,29.3z"/>
	<path class="st4" d="M176.15,19.02l-5.28,0h-12.36v6.12h17.64c1.55,0,2.7,0.71,3.45,2.13h-18.85c-2.81,0-4.96,0.8-6.45,2.4
		c-1.22,1.36-1.84,3.02-1.84,4.99c0,2.36,0.82,4.18,2.46,5.48c1.49,1.24,3.43,1.86,5.82,1.86h15.41c2.75,0,5.09-0.99,7.03-2.97
		c1.94-1.98,2.91-4.34,2.91-7.09v-2.81c0-2.78-0.97-5.16-2.91-7.14C181.24,20.01,178.9,19.02,176.15,19.02z M176.15,35.88h-15.41
		c-1.49,0-2.24-0.41-2.24-1.22c0-0.85,0.75-1.27,2.24-1.27h19.03C179.12,35.05,177.91,35.88,176.15,35.88z"/>
	<path class="st4" d="M297.09,21.99c-1.94-1.98-4.28-2.97-7.03-2.97l-17.61,0v6.12h17.61c1.55,0,2.7,0.71,3.45,2.13h-18.85
		c-2.81,0-4.96,0.8-6.45,2.4c-1.23,1.36-1.84,3.02-1.84,4.99c0,2.36,0.82,4.18,2.46,5.48c1.49,1.24,3.43,1.86,5.82,1.86h15.41
		c2.75,0,5.09-0.99,7.03-2.97c1.94-1.98,2.91-4.34,2.91-7.09v-2.81C300,26.35,299.03,23.97,297.09,21.99z M290.06,35.88h-15.41
		c-1.49,0-2.24-0.41-2.24-1.22c0-0.85,0.75-1.27,2.24-1.27h19.03C293.03,35.05,291.82,35.88,290.06,35.88z"/>
	<path class="st4" d="M128.22,51.93h-17.46c-2.74,0-5.08,0.99-7.01,2.97c-1.93,1.98-2.9,4.36-2.9,7.14v2.81
		c0,2.75,0.97,5.11,2.93,7.09c1.95,1.98,4.28,2.97,6.99,2.97h13.53c2.74,0,5.08-0.98,7.03-2.95c1.95-1.96,2.93-4.34,2.93-7.11v-18.9
		h-6.03V51.93z M128.22,64.84c0,1.09-0.38,2.02-1.14,2.79c-0.76,0.77-1.69,1.15-2.79,1.15h-13.53c-1.07,0-1.99-0.38-2.75-1.15
		c-0.76-0.77-1.14-1.7-1.14-2.79v-2.81c0-1.09,0.38-2.02,1.14-2.81c0.76-0.79,1.67-1.18,2.75-1.18h17.46V64.84z"/>
	<path class="st4" d="M245.18,51.93h-17.6v6.12h17.6c1.55,0,2.7,0.71,3.44,2.13h-18.8c-2.8,0-4.94,0.8-6.43,2.4
		c-1.22,1.36-1.83,3.02-1.83,4.99c0,2.36,0.82,4.18,2.46,5.48c1.49,1.24,3.42,1.86,5.81,1.86h15.36c2.74,0,5.08-0.99,7.01-2.97
		c1.93-1.98,2.9-4.34,2.9-7.09v-2.81c0-2.78-0.97-5.16-2.9-7.14C250.26,52.92,247.92,51.93,245.18,51.93z M245.18,68.78h-15.36
		c-1.49,0-2.23-0.41-2.23-1.22c0-0.85,0.74-1.27,2.23-1.27h18.98C248.14,67.95,246.94,68.78,245.18,68.78z"/>
	<path class="st4" d="M171.2,51.93h-13.53c-2.74,0-5.08,0.99-7.01,2.97c-1.93,1.98-2.9,4.36-2.9,7.14v2.81
		c0,2.75,0.97,5.11,2.93,7.09c1.95,1.98,4.28,2.97,6.99,2.97h17.1c-0.66,1.57-1.85,2.36-3.57,2.36h-10.54v6.12h10.54
		c2.74,0,5.08-0.99,7.03-2.97c1.95-1.98,2.93-4.36,2.93-7.14V62.03c0-2.78-0.98-5.16-2.93-7.14
		C176.28,52.92,173.94,51.93,171.2,51.93z M175.13,68.78h-17.46c-1.07,0-1.99-0.38-2.75-1.15c-0.76-0.77-1.14-1.7-1.14-2.79v-2.81
		c0-1.09,0.38-2.02,1.14-2.81c0.76-0.79,1.68-1.18,2.75-1.18h13.53c1.07,0,1.99,0.39,2.77,1.18c0.77,0.78,1.16,1.72,1.16,2.81V68.78
		z"/>
	<polygon class="st4" points="223.33,51.93 193.45,51.93 193.45,58.04 205.39,58.04 205.39,74.9 211.39,74.9 211.39,58.04 
		223.33,58.04 	"/>
	<rect x="257.97" y="45.95" class="st4" width="5.99" height="28.96"/>
	<rect x="143.48" y="13.04" class="st4" width="5.99" height="28.96"/>
	<rect x="184.17" y="51.93" class="st4" width="5.99" height="22.97"/>
	<rect x="138.61" y="51.93" class="st4" width="5.99" height="22.97"/>
</g>
<g>
	<g>
		<path class="st1" d="M861.36,149.1c1.52,0,2.84,0.18,3.94,0.54c1.1,0.36,2.02,0.86,2.73,1.49c0.71,0.64,1.24,1.4,1.59,2.27
			c0.34,0.88,0.51,1.83,0.51,2.86c0,1.09-0.18,2.09-0.54,3c-0.35,0.91-0.9,1.69-1.62,2.34c-0.72,0.65-1.64,1.16-2.74,1.52
			c-1.1,0.36-2.39,0.54-3.87,0.54h-2.91v7.63h-4.59v-22.2H861.36z M861.36,160.14c1.44,0,2.49-0.35,3.16-1.04
			c0.67-0.69,1-1.64,1-2.84c0-0.55-0.09-1.05-0.25-1.51s-0.43-0.84-0.77-1.16c-0.34-0.32-0.77-0.57-1.29-0.74
			c-0.52-0.17-1.14-0.26-1.85-0.26h-2.91v7.56H861.36z"/>
		<path class="st1" d="M887.88,167.62c0.75,0,1.41-0.12,2.01-0.37c0.59-0.25,1.09-0.6,1.5-1.06c0.41-0.46,0.72-1.01,0.93-1.67
			c0.21-0.65,0.32-1.39,0.32-2.2V149.1h4.59v13.22c0,1.35-0.22,2.58-0.65,3.71c-0.43,1.13-1.05,2.1-1.86,2.91
			c-0.81,0.82-1.79,1.46-2.94,1.91c-1.15,0.46-2.45,0.69-3.9,0.69c-1.45,0-2.75-0.23-3.91-0.69c-1.16-0.46-2.14-1.1-2.94-1.91
			c-0.81-0.81-1.43-1.79-1.86-2.91c-0.43-1.13-0.65-2.37-0.65-3.71V149.1h4.59v13.22c0,0.82,0.11,1.55,0.32,2.2
			c0.22,0.65,0.53,1.21,0.93,1.67c0.41,0.46,0.91,0.81,1.5,1.06C886.45,167.5,887.12,167.62,887.88,167.62z"/>
		<path class="st1" d="M915.49,149.1c1.49,0,2.76,0.14,3.82,0.42c1.06,0.28,1.92,0.68,2.59,1.19c0.67,0.51,1.15,1.14,1.46,1.87
			c0.31,0.73,0.46,1.55,0.46,2.46c0,0.51-0.07,1-0.22,1.47c-0.15,0.47-0.38,0.91-0.69,1.32c-0.31,0.41-0.71,0.79-1.2,1.12
			c-0.49,0.34-1.07,0.62-1.75,0.86c1.51,0.36,2.63,0.94,3.35,1.74c0.72,0.81,1.09,1.85,1.09,3.14c0,0.94-0.18,1.81-0.54,2.61
			c-0.36,0.81-0.89,1.51-1.58,2.1c-0.69,0.59-1.55,1.05-2.56,1.38c-1.01,0.33-2.18,0.5-3.49,0.5h-8.6v-22.2H915.49z M912.2,152.59v6
			h3.01c0.64,0,1.21-0.05,1.72-0.16c0.5-0.11,0.92-0.28,1.25-0.51c0.34-0.24,0.6-0.54,0.77-0.93c0.18-0.38,0.27-0.84,0.27-1.38
			c0-0.55-0.07-1.02-0.22-1.41c-0.15-0.39-0.37-0.7-0.68-0.93c-0.31-0.24-0.69-0.41-1.16-0.51c-0.47-0.11-1.02-0.16-1.67-0.16H912.2
			z M916.13,167.78c0.73,0,1.34-0.09,1.81-0.27c0.47-0.18,0.85-0.42,1.14-0.71s0.48-0.64,0.6-1.02c0.11-0.38,0.17-0.78,0.17-1.19
			c0-0.45-0.07-0.85-0.2-1.21c-0.13-0.36-0.35-0.66-0.64-0.91c-0.29-0.25-0.68-0.44-1.15-0.57c-0.48-0.13-1.06-0.2-1.75-0.2h-3.9
			v6.07H916.13z"/>
		<path class="st1" d="M947.1,167.57v3.73h-13.17v-22.2h4.59v18.47H947.1z"/>
		<path class="st1" d="M960.18,171.3h-4.62v-22.2h4.62V171.3z"/>
		<path class="st1" d="M985.98,165.84c0.26,0,0.47,0.09,0.64,0.28l1.82,1.94c-0.9,1.14-2.01,2.01-3.34,2.6
			c-1.33,0.59-2.92,0.89-4.75,0.89c-1.66,0-3.16-0.28-4.48-0.85c-1.32-0.57-2.45-1.36-3.38-2.36c-0.93-1.01-1.64-2.21-2.14-3.59
			c-0.5-1.39-0.75-2.9-0.75-4.55c0-1.1,0.12-2.15,0.36-3.14c0.24-0.99,0.59-1.91,1.05-2.75c0.46-0.84,1.01-1.59,1.66-2.27
			c0.65-0.67,1.38-1.25,2.2-1.72c0.82-0.47,1.71-0.84,2.67-1.09c0.97-0.25,1.99-0.37,3.09-0.37c0.81,0,1.59,0.07,2.32,0.21
			c0.73,0.14,1.41,0.34,2.04,0.6c0.63,0.26,1.22,0.56,1.75,0.93c0.53,0.36,1.02,0.76,1.45,1.19l-1.55,2.11
			c-0.09,0.13-0.21,0.25-0.35,0.35c-0.14,0.1-0.34,0.15-0.58,0.15c-0.24,0-0.49-0.09-0.74-0.26c-0.25-0.17-0.56-0.37-0.92-0.58
			c-0.36-0.21-0.81-0.41-1.36-0.58c-0.54-0.17-1.24-0.26-2.07-0.26c-0.93,0-1.78,0.17-2.56,0.51c-0.77,0.34-1.44,0.82-1.99,1.46
			c-0.56,0.64-0.99,1.42-1.3,2.35c-0.31,0.93-0.46,1.98-0.46,3.17c0,1.19,0.17,2.26,0.5,3.19c0.33,0.93,0.79,1.72,1.36,2.37
			c0.58,0.64,1.25,1.13,2.02,1.46c0.77,0.33,1.59,0.5,2.47,0.5c0.52,0,0.99-0.03,1.42-0.08c0.42-0.05,0.81-0.14,1.18-0.26
			c0.36-0.12,0.7-0.28,1.02-0.47c0.32-0.19,0.65-0.44,0.97-0.73c0.11-0.09,0.23-0.17,0.35-0.23
			C985.7,165.87,985.84,165.84,985.98,165.84z"/>
		<path class="st1" d="M1001.43,171.3h-4.62v-22.2h4.62V171.3z"/>
		<path class="st1" d="M1031.92,160.19c0,1.62-0.27,3.11-0.82,4.48c-0.55,1.36-1.32,2.53-2.31,3.51c-1,0.98-2.19,1.75-3.59,2.3
			c-1.4,0.55-2.95,0.83-4.65,0.83h-8.54v-22.2h8.54c1.7,0,3.25,0.28,4.65,0.83c1.4,0.55,2.59,1.32,3.59,2.3
			c0.99,0.98,1.76,2.16,2.31,3.51C1031.65,157.09,1031.92,158.58,1031.92,160.19z M1027.21,160.19c0-1.16-0.15-2.21-0.46-3.13
			c-0.31-0.93-0.75-1.71-1.32-2.36c-0.57-0.64-1.27-1.14-2.09-1.48c-0.82-0.35-1.75-0.52-2.79-0.52h-3.92v15.01h3.92
			c1.04,0,1.97-0.17,2.79-0.51c0.82-0.34,1.52-0.84,2.09-1.48c0.57-0.65,1.01-1.44,1.32-2.36
			C1027.06,162.41,1027.21,161.36,1027.21,160.19z"/>
		<path class="st1" d="M1059.82,171.3h-3.57c-0.4,0-0.72-0.09-0.97-0.28c-0.25-0.19-0.43-0.43-0.56-0.73l-1.5-4.24h-8.84l-1.5,4.24
			c-0.1,0.26-0.28,0.49-0.54,0.7c-0.25,0.21-0.57,0.31-0.96,0.31h-3.6l8.67-22.2h4.7L1059.82,171.3z M1052.11,162.87l-2.4-6.8
			c-0.14-0.35-0.29-0.77-0.45-1.25c-0.16-0.48-0.31-1-0.45-1.56c-0.14,0.57-0.29,1.1-0.45,1.58c-0.16,0.48-0.31,0.91-0.45,1.26
			l-2.39,6.76H1052.11z"/>
		<path class="st1" d="M1087.82,160.19c0,1.62-0.27,3.11-0.82,4.48c-0.54,1.36-1.32,2.53-2.31,3.51c-1,0.98-2.19,1.75-3.59,2.3
			c-1.4,0.55-2.95,0.83-4.65,0.83h-8.54v-22.2h8.54c1.7,0,3.25,0.28,4.65,0.83c1.4,0.55,2.59,1.32,3.59,2.3
			c0.99,0.98,1.76,2.16,2.31,3.51S1087.82,158.58,1087.82,160.19z M1083.11,160.19c0-1.16-0.15-2.21-0.46-3.13
			c-0.3-0.93-0.74-1.71-1.32-2.36c-0.57-0.64-1.27-1.14-2.09-1.48c-0.82-0.35-1.75-0.52-2.79-0.52h-3.92v15.01h3.92
			c1.04,0,1.97-0.17,2.79-0.51c0.82-0.34,1.52-0.84,2.09-1.48c0.57-0.65,1.01-1.44,1.32-2.36
			C1082.95,162.41,1083.11,161.36,1083.11,160.19z"/>
		<path class="st1" d="M1130.14,149.1l-8.94,22.2h-4.16l-8.94-22.2h3.7c0.4,0,0.72,0.09,0.97,0.28c0.25,0.19,0.43,0.43,0.56,0.73
			l4.8,12.79c0.18,0.48,0.36,1,0.54,1.57c0.18,0.57,0.35,1.16,0.5,1.78c0.13-0.62,0.28-1.22,0.44-1.78
			c0.16-0.56,0.33-1.09,0.51-1.57l4.78-12.79c0.1-0.25,0.28-0.49,0.54-0.69c0.26-0.21,0.58-0.31,0.97-0.31H1130.14z"/>
		<path class="st1" d="M1142.85,171.3h-4.62v-22.2h4.62V171.3z"/>
		<path class="st1" d="M1165.53,153.35c-0.14,0.24-0.29,0.41-0.44,0.51c-0.15,0.11-0.34,0.16-0.57,0.16c-0.22,0-0.47-0.08-0.73-0.24
			c-0.26-0.16-0.56-0.33-0.91-0.51c-0.35-0.18-0.75-0.35-1.19-0.51c-0.45-0.16-0.98-0.24-1.57-0.24c-1.06,0-1.86,0.24-2.39,0.71
			c-0.53,0.47-0.79,1.09-0.79,1.86c0,0.49,0.14,0.89,0.43,1.22c0.29,0.32,0.68,0.6,1.15,0.83c0.47,0.24,1.01,0.45,1.62,0.63
			c0.6,0.18,1.21,0.39,1.85,0.61c0.63,0.22,1.25,0.48,1.85,0.77c0.6,0.3,1.14,0.67,1.62,1.12c0.47,0.45,0.85,1,1.15,1.64
			c0.29,0.65,0.44,1.44,0.44,2.36c0,1.01-0.18,1.96-0.53,2.84c-0.35,0.88-0.86,1.65-1.52,2.31c-0.66,0.66-1.48,1.18-2.46,1.55
			c-0.97,0.38-2.08,0.57-3.31,0.57c-0.7,0-1.4-0.07-2.1-0.21c-0.7-0.14-1.37-0.34-2.02-0.6c-0.65-0.26-1.26-0.56-1.83-0.92
			c-0.57-0.36-1.07-0.75-1.5-1.19l1.35-2.17c0.11-0.16,0.26-0.3,0.44-0.41s0.38-0.16,0.58-0.16c0.28,0,0.57,0.1,0.87,0.31
			c0.31,0.2,0.66,0.43,1.05,0.68c0.4,0.24,0.86,0.47,1.39,0.67c0.52,0.2,1.15,0.31,1.89,0.31c1.07,0,1.9-0.25,2.49-0.73
			c0.59-0.49,0.88-1.22,0.88-2.19c0-0.56-0.14-1.02-0.43-1.36c-0.29-0.35-0.67-0.64-1.14-0.87c-0.47-0.24-1-0.44-1.61-0.6
			c-0.6-0.17-1.22-0.35-1.85-0.56c-0.63-0.2-1.25-0.45-1.85-0.73c-0.6-0.29-1.14-0.66-1.61-1.13c-0.47-0.47-0.85-1.05-1.14-1.74
			c-0.29-0.69-0.43-1.55-0.43-2.59c0-0.83,0.16-1.63,0.49-2.4c0.33-0.77,0.81-1.46,1.44-2.06c0.63-0.6,1.41-1.09,2.33-1.45
			s1.98-0.55,3.18-0.55c1.33,0,2.57,0.21,3.71,0.62c1.13,0.41,2.1,0.99,2.88,1.72L1165.53,153.35z"/>
		<path class="st1" d="M1185.36,167.62c0.75,0,1.42-0.12,2.01-0.37c0.59-0.25,1.09-0.6,1.5-1.06c0.41-0.46,0.72-1.01,0.93-1.67
			c0.22-0.65,0.32-1.39,0.32-2.2V149.1h4.59v13.22c0,1.35-0.22,2.58-0.65,3.71c-0.43,1.13-1.05,2.1-1.86,2.91
			c-0.81,0.82-1.79,1.46-2.94,1.91c-1.15,0.46-2.45,0.69-3.9,0.69c-1.45,0-2.75-0.23-3.91-0.69c-1.16-0.46-2.14-1.1-2.95-1.91
			c-0.81-0.81-1.43-1.79-1.86-2.91c-0.43-1.13-0.65-2.37-0.65-3.71V149.1h4.59v13.22c0,0.82,0.11,1.55,0.32,2.2
			c0.22,0.65,0.52,1.21,0.93,1.67c0.41,0.46,0.91,0.81,1.5,1.06C1183.94,167.5,1184.61,167.62,1185.36,167.62z"/>
		<path class="st1" d="M1223.7,171.3h-3.57c-0.4,0-0.72-0.09-0.97-0.28c-0.25-0.19-0.43-0.43-0.56-0.73l-1.5-4.24h-8.84l-1.5,4.24
			c-0.1,0.26-0.28,0.49-0.54,0.7c-0.26,0.21-0.58,0.31-0.96,0.31h-3.6l8.68-22.2h4.7L1223.7,171.3z M1215.99,162.87l-2.4-6.8
			c-0.14-0.35-0.29-0.77-0.45-1.25c-0.16-0.48-0.31-1-0.45-1.56c-0.14,0.57-0.29,1.1-0.45,1.58c-0.16,0.48-0.31,0.91-0.45,1.26
			l-2.39,6.76H1215.99z"/>
		<path class="st1" d="M1244.96,167.57v3.73h-13.17v-22.2h4.59v18.47H1244.96z"/>
	</g>
	<polygon class="st2" points="826.77,-69.21 785.14,140.28 701.12,104.33 826.77,-69.21 	"/>
	<polygon class="st3" points="611.79,-19.16 826.77,-69.21 639.4,41.71 611.79,-19.16 	"/>
	<polygon class="st6" points="696.07,59.81 639.4,41.71 826.77,-69.21 696.07,59.81 	"/>
	<polygon class="st5" points="701.12,104.33 696.07,59.81 826.77,-69.21 701.12,104.33 	"/>
	<path class="st7" d="M1223.05-24.48h-8.98c-5.99,0-11.04,1.97-15.14,5.9c-4.11-3.94-9.16-5.9-15.14-5.9h-9.09
		c-6.42,0-11.76,2.27-16.01,6.81c-4.26,4.54-6.38,10.21-6.38,17v30.25h14.6V-0.66c0-2.65,0.66-4.88,2-6.71
		c1.33-1.82,3.26-2.73,5.79-2.73h9.09c2.52,0,4.45,0.91,5.79,2.73c1.34,1.82,2,4.06,2,6.71v30.25h14.6V-0.66
		c0-2.65,0.69-4.88,2.05-6.71c1.37-1.82,3.32-2.73,5.85-2.73h8.98c2.52,0,4.47,0.93,5.84,2.79c1.37,1.86,2.06,4.08,2.06,6.65v30.25
		h14.5V-0.66c0-6.65-2.07-12.28-6.22-16.9C1235.07-22.17,1229.68-24.48,1223.05-24.48z"/>
	<path class="st7" d="M925.41-38.75h-47.62c-6.45,0-11.95,2.27-16.5,6.82c-4.55,4.55-6.83,9.99-6.83,16.31v45.2h14.51V6.67h56.44
		c6.45,0,12.06-2.2,16.83-6.61c4.76-4.41,7.15-9.77,7.15-16.1c0-6.33-2.38-11.69-7.15-16.1C937.47-36.55,931.86-38.75,925.41-38.75z
		 M932.08-10.18c-1.86,1.64-4.09,2.45-6.66,2.45h-56.44v-7.89c0-2.42,0.53-4.78,2.25-6.49c1.72-1.71,4.13-2.25,6.57-2.25h47.62
		c2.44,0,4.62,0.78,6.56,2.35c1.93,1.57,2.9,3.55,2.9,5.97C934.87-13.77,933.94-11.81,932.08-10.18z"/>
	<path class="st7" d="M1140.09-0.29c-3.54-2.87-8.13-4.31-13.79-4.31h-40.52c-3.53,0-5.3-0.95-5.3-2.84c0-1.96,1.77-2.94,5.3-2.94
		h49.33v-14.1h-49.33c-6.65,0-11.7,1.86-15.17,5.58c-2.9,3.09-4.35,6.91-4.35,11.47c0,5.47,1.91,9.71,5.73,12.73
		c3.54,2.88,8.13,4.31,13.79,4.31h40.52c3.53,0,5.3,0.98,5.3,2.95c0,1.89-1.77,2.84-5.3,2.84h-59.83v14.2h59.83
		c5.66,0,10.25-1.44,13.79-4.32c3.82-3.01,5.73-7.26,5.73-12.73S1143.91,2.8,1140.09-0.29z"/>
	<path class="st7" d="M1034.64-24.47l-12.67,0h-29.67v14.39h42.34c3.73,0,6.49,1.67,8.28,5.01h-45.26c-6.74,0-11.89,1.88-15.48,5.65
		c-2.94,3.2-4.4,7.11-4.4,11.73c0,5.54,1.97,9.84,5.91,12.9c3.58,2.91,8.24,4.37,13.97,4.37h36.98c6.59,0,12.22-2.33,16.88-6.99
		c4.66-4.65,6.99-10.22,6.99-16.68v-6.61c0-6.54-2.33-12.14-6.99-16.79C1046.86-22.14,1041.23-24.47,1034.64-24.47z M1034.64,15.19
		h-36.98c-3.58,0-5.38-0.96-5.38-2.88c0-1.99,1.8-2.99,5.38-2.99h45.69C1041.77,13.24,1038.86,15.19,1034.64,15.19z"/>
	<path class="st7" d="M1324.95-17.48c-4.66-4.65-10.29-6.98-16.88-6.98l-42.28,0v14.39h42.28c3.73,0,6.49,1.67,8.28,5.01h-45.26
		c-6.74,0-11.9,1.88-15.48,5.65c-2.94,3.2-4.41,7.11-4.41,11.73c0,5.54,1.97,9.84,5.91,12.9c3.58,2.91,8.24,4.37,13.98,4.37h36.98
		c6.59,0,12.22-2.33,16.88-6.99c4.66-4.65,6.99-10.22,6.99-16.68v-6.61C1331.94-7.23,1329.61-12.83,1324.95-17.48z M1308.07,15.19
		h-36.98c-3.58,0-5.37-0.96-5.37-2.88c0-1.99,1.79-2.99,5.37-2.99h45.69C1315.2,13.24,1312.3,15.19,1308.07,15.19z"/>
	<path class="st7" d="M919.58,52.96h-41.92c-6.57,0-12.19,2.33-16.83,6.98c-4.64,4.65-6.97,10.25-6.97,16.79v6.61
		c0,6.47,2.34,12.03,7.02,16.68c4.68,4.66,10.28,6.98,16.78,6.98h32.48c6.58,0,12.2-2.31,16.89-6.93c4.68-4.62,7.02-10.2,7.02-16.74
		V38.88h-14.47V52.96z M919.58,83.34c0,2.56-0.91,4.74-2.74,6.56c-1.82,1.81-4.05,2.72-6.7,2.72h-32.48c-2.57,0-4.77-0.9-6.59-2.72
		c-1.82-1.82-2.73-4-2.73-6.56v-6.61c0-2.56,0.91-4.76,2.73-6.61c1.82-1.85,4.02-2.77,6.59-2.77h41.92V83.34z"/>
	<path class="st7" d="M1200.35,52.96h-42.26v14.39h42.26c3.72,0,6.47,1.67,8.26,5.01h-45.13c-6.72,0-11.86,1.88-15.44,5.65
		c-2.93,3.2-4.4,7.11-4.4,11.73c0,5.54,1.97,9.84,5.9,12.9c3.58,2.92,8.22,4.37,13.94,4.37h36.88c6.57,0,12.19-2.33,16.83-6.98
		c4.65-4.66,6.97-10.22,6.97-16.68v-6.61c0-6.54-2.32-12.14-6.97-16.79C1212.53,55.28,1206.92,52.96,1200.35,52.96z M1200.35,92.61
		h-36.88c-3.58,0-5.36-0.96-5.36-2.87c0-1.99,1.78-2.99,5.36-2.99h45.56C1207.46,90.66,1204.56,92.61,1200.35,92.61z"/>
	<path class="st7" d="M1022.75,52.96h-32.48c-6.58,0-12.19,2.33-16.84,6.98c-4.64,4.65-6.97,10.25-6.97,16.79v6.61
		c0,6.47,2.34,12.03,7.02,16.68c4.68,4.66,10.27,6.98,16.78,6.98h41.06c-1.57,3.7-4.43,5.54-8.58,5.54h-25.3v14.39h25.3
		c6.58,0,12.2-2.33,16.89-6.98c4.68-4.66,7.02-10.26,7.02-16.79V76.73c0-6.54-2.34-12.14-7.02-16.79
		C1034.95,55.28,1029.32,52.96,1022.75,52.96z M1032.18,92.61h-41.91c-2.58,0-4.77-0.9-6.6-2.72c-1.82-1.82-2.73-4-2.73-6.56v-6.61
		c0-2.56,0.91-4.76,2.73-6.61c1.82-1.85,4.02-2.77,6.6-2.77h32.48c2.57,0,4.79,0.92,6.65,2.77c1.85,1.85,2.78,4.05,2.78,6.61V92.61z
		"/>
	<polygon class="st7" points="1147.89,52.96 1076.17,52.96 1076.17,67.35 1104.84,67.35 1104.84,107.01 1119.23,107.01 
		1119.23,67.35 1147.89,67.35 	"/>
	<rect x="1231.05" y="38.89" class="st7" width="14.39" height="68.12"/>
	<rect x="956.22" y="-38.54" class="st7" width="14.39" height="68.13"/>
	<rect x="1053.88" y="52.96" class="st7" width="14.39" height="54.05"/>
	<rect x="944.53" y="52.96" class="st7" width="14.39" height="54.05"/>
</g>
</svg>
