<?xml version="1.0" encoding="utf-8"?>
<!-- Generator: Adobe Illustrator 23.0.6, SVG Export Plug-In . SVG Version: 6.00 Build 0)  -->
<svg version="1.1" id="Capa_1" xmlns="http://www.w3.org/2000/svg" xmlns:xlink="http://www.w3.org/1999/xlink" x="0px" y="0px"
	 viewBox="0 0 792 612" style="enable-background:new 0 0 792 612;" xml:space="preserve">
<style type="text/css">
	.st0{fill:#2E353A;}
	.st1{fill:#43A5DD;}
	.st2{fill-rule:evenodd;clip-rule:evenodd;fill:#E30E5A;}
	.st3{fill-rule:evenodd;clip-rule:evenodd;fill:#43A5DD;}
	.st4{fill-rule:evenodd;clip-rule:evenodd;fill:#2E353A;}
	.st5{fill-rule:evenodd;clip-rule:evenodd;fill:#FFEA22;}
	.st6{fill-rule:evenodd;clip-rule:evenodd;fill:#45494D;}
	.st7{fill-rule:evenodd;clip-rule:evenodd;fill:#F3F5F7;}
</style>
<rect x="0" class="st0" width="792" height="612"/>
<g>
	<g>
		<path class="st1" d="M285.49,403.93c1.52,0,2.84,0.18,3.94,0.54c1.1,0.36,2.02,0.86,2.73,1.49c0.71,0.64,1.24,1.4,1.59,2.27
			c0.34,0.88,0.51,1.83,0.51,2.86c0,1.09-0.18,2.09-0.54,3c-0.35,0.91-0.9,1.69-1.62,2.34c-0.72,0.65-1.64,1.16-2.74,1.52
			c-1.1,0.36-2.39,0.54-3.87,0.54h-2.91v7.63H278v-22.2H285.49z M285.49,414.98c1.44,0,2.49-0.35,3.16-1.04c0.67-0.69,1-1.64,1-2.84
			c0-0.55-0.09-1.05-0.25-1.51c-0.17-0.45-0.43-0.84-0.77-1.16c-0.34-0.32-0.77-0.57-1.29-0.74c-0.52-0.17-1.14-0.26-1.85-0.26
			h-2.91v7.56H285.49z"/>
		<path class="st1" d="M312.01,422.46c0.75,0,1.41-0.12,2.01-0.37c0.59-0.25,1.09-0.6,1.5-1.06c0.41-0.46,0.72-1.01,0.93-1.67
			c0.21-0.65,0.32-1.39,0.32-2.2v-13.22h4.59v13.22c0,1.35-0.22,2.58-0.65,3.71c-0.43,1.13-1.05,2.1-1.86,2.91
			c-0.81,0.82-1.79,1.46-2.94,1.91c-1.15,0.46-2.45,0.69-3.9,0.69c-1.45,0-2.75-0.23-3.91-0.69c-1.16-0.46-2.14-1.1-2.94-1.91
			c-0.81-0.81-1.43-1.79-1.86-2.91c-0.43-1.13-0.65-2.37-0.65-3.71v-13.22h4.59v13.22c0,0.82,0.11,1.55,0.32,2.2
			c0.22,0.65,0.53,1.21,0.93,1.67c0.41,0.46,0.91,0.81,1.5,1.06C310.59,422.34,311.26,422.46,312.01,422.46z"/>
		<path class="st1" d="M339.63,403.93c1.49,0,2.76,0.14,3.82,0.42c1.06,0.28,1.92,0.68,2.59,1.19c0.67,0.51,1.15,1.14,1.46,1.87
			c0.31,0.73,0.46,1.55,0.46,2.46c0,0.51-0.07,1-0.22,1.47c-0.15,0.47-0.38,0.91-0.69,1.32c-0.31,0.41-0.71,0.79-1.2,1.12
			c-0.49,0.34-1.07,0.62-1.75,0.86c1.51,0.36,2.63,0.94,3.35,1.74c0.72,0.81,1.09,1.85,1.09,3.14c0,0.94-0.18,1.81-0.54,2.61
			c-0.36,0.81-0.89,1.51-1.58,2.1c-0.69,0.59-1.55,1.05-2.56,1.38c-1.01,0.33-2.18,0.5-3.49,0.5h-8.6v-22.2H339.63z M336.34,407.42
			v6h3.01c0.64,0,1.21-0.05,1.72-0.16c0.5-0.11,0.92-0.28,1.25-0.51c0.34-0.24,0.6-0.54,0.77-0.93c0.18-0.38,0.27-0.84,0.27-1.38
			c0-0.55-0.07-1.02-0.22-1.41c-0.15-0.39-0.37-0.7-0.68-0.93c-0.31-0.24-0.69-0.41-1.16-0.51c-0.47-0.11-1.02-0.16-1.67-0.16
			H336.34z M340.27,422.61c0.73,0,1.34-0.09,1.81-0.27c0.47-0.18,0.85-0.42,1.14-0.71s0.48-0.64,0.6-1.02
			c0.11-0.38,0.17-0.78,0.17-1.19c0-0.45-0.07-0.85-0.2-1.21c-0.13-0.36-0.35-0.66-0.64-0.91c-0.29-0.25-0.68-0.44-1.15-0.57
			c-0.48-0.13-1.06-0.2-1.75-0.2h-3.9v6.07H340.27z"/>
		<path class="st1" d="M371.24,422.4v3.73h-13.17v-22.2h4.59v18.47H371.24z"/>
		<path class="st1" d="M384.32,426.13h-4.62v-22.2h4.62V426.13z"/>
		<path class="st1" d="M410.12,420.67c0.26,0,0.47,0.09,0.64,0.28l1.82,1.94c-0.9,1.14-2.01,2.01-3.34,2.6
			c-1.33,0.59-2.92,0.89-4.75,0.89c-1.66,0-3.16-0.28-4.48-0.85c-1.32-0.57-2.45-1.36-3.38-2.36c-0.93-1.01-1.64-2.21-2.14-3.59
			c-0.5-1.39-0.75-2.9-0.75-4.55c0-1.1,0.12-2.15,0.36-3.14c0.24-0.99,0.59-1.91,1.05-2.75s1.01-1.59,1.66-2.27
			c0.65-0.67,1.38-1.24,2.2-1.72c0.82-0.47,1.71-0.84,2.67-1.09c0.97-0.25,1.99-0.37,3.09-0.37c0.81,0,1.59,0.07,2.32,0.21
			c0.73,0.14,1.41,0.34,2.04,0.6c0.63,0.26,1.22,0.56,1.75,0.93c0.53,0.36,1.02,0.76,1.45,1.19l-1.55,2.11
			c-0.09,0.13-0.21,0.25-0.35,0.35c-0.14,0.1-0.34,0.15-0.58,0.15c-0.24,0-0.49-0.09-0.74-0.26c-0.25-0.17-0.56-0.37-0.92-0.58
			c-0.36-0.21-0.81-0.41-1.36-0.58c-0.54-0.17-1.24-0.26-2.07-0.26c-0.93,0-1.78,0.17-2.56,0.51c-0.77,0.34-1.44,0.82-1.99,1.46
			c-0.56,0.64-0.99,1.42-1.3,2.35c-0.31,0.93-0.46,1.98-0.46,3.17c0,1.19,0.17,2.26,0.5,3.19c0.33,0.93,0.79,1.72,1.36,2.37
			c0.58,0.64,1.25,1.13,2.02,1.46c0.77,0.33,1.59,0.5,2.47,0.5c0.52,0,0.99-0.03,1.42-0.08c0.42-0.05,0.81-0.14,1.18-0.26
			c0.36-0.12,0.7-0.28,1.02-0.47c0.32-0.19,0.65-0.44,0.97-0.73c0.11-0.09,0.23-0.17,0.35-0.23
			C409.84,420.7,409.97,420.67,410.12,420.67z"/>
		<path class="st1" d="M425.56,426.13h-4.62v-22.2h4.62V426.13z"/>
		<path class="st1" d="M456.06,415.02c0,1.62-0.27,3.11-0.82,4.48c-0.55,1.36-1.32,2.53-2.31,3.51c-1,0.98-2.19,1.75-3.59,2.3
			c-1.4,0.55-2.95,0.83-4.65,0.83h-8.54v-22.2h8.54c1.7,0,3.25,0.28,4.65,0.83c1.4,0.55,2.59,1.32,3.59,2.3
			c0.99,0.98,1.76,2.16,2.31,3.51C455.79,411.93,456.06,413.41,456.06,415.02z M451.35,415.02c0-1.16-0.15-2.21-0.46-3.13
			c-0.31-0.93-0.75-1.71-1.32-2.36c-0.57-0.64-1.27-1.14-2.09-1.48c-0.82-0.35-1.75-0.52-2.79-0.52h-3.92v15.01h3.92
			c1.04,0,1.97-0.17,2.79-0.51c0.82-0.34,1.52-0.84,2.09-1.48c0.57-0.65,1.01-1.44,1.32-2.36
			C451.19,417.25,451.35,416.2,451.35,415.02z"/>
		<path class="st1" d="M483.96,426.13h-3.57c-0.4,0-0.72-0.09-0.97-0.28c-0.25-0.19-0.43-0.43-0.56-0.73l-1.5-4.24h-8.84l-1.5,4.24
			c-0.1,0.26-0.28,0.49-0.54,0.7c-0.25,0.21-0.57,0.31-0.96,0.31h-3.6l8.67-22.2h4.7L483.96,426.13z M476.25,417.7l-2.4-6.8
			c-0.14-0.35-0.29-0.77-0.45-1.25c-0.16-0.48-0.31-1-0.45-1.56c-0.14,0.57-0.29,1.1-0.45,1.58c-0.16,0.48-0.31,0.91-0.45,1.26
			l-2.39,6.76H476.25z"/>
		<path class="st1" d="M511.95,415.02c0,1.62-0.27,3.11-0.82,4.48c-0.54,1.36-1.32,2.53-2.31,3.51c-1,0.98-2.19,1.75-3.59,2.3
			c-1.4,0.55-2.95,0.83-4.65,0.83h-8.54v-22.2h8.54c1.7,0,3.25,0.28,4.65,0.83c1.4,0.55,2.59,1.32,3.59,2.3
			c0.99,0.98,1.76,2.16,2.31,3.51C511.68,411.93,511.95,413.41,511.95,415.02z M507.24,415.02c0-1.16-0.15-2.21-0.46-3.13
			c-0.3-0.93-0.74-1.71-1.32-2.36c-0.57-0.64-1.26-1.14-2.09-1.48c-0.82-0.35-1.75-0.52-2.79-0.52h-3.92v15.01h3.92
			c1.04,0,1.97-0.17,2.79-0.51c0.82-0.34,1.52-0.84,2.09-1.48c0.57-0.65,1.01-1.44,1.32-2.36
			C507.09,417.25,507.24,416.2,507.24,415.02z"/>
		<path class="st1" d="M554.27,403.93l-8.94,22.2h-4.16l-8.94-22.2h3.7c0.4,0,0.72,0.09,0.97,0.28c0.25,0.19,0.43,0.43,0.56,0.73
			l4.8,12.79c0.18,0.48,0.36,1,0.54,1.57c0.18,0.57,0.35,1.16,0.5,1.78c0.13-0.62,0.28-1.22,0.44-1.78
			c0.16-0.56,0.33-1.09,0.51-1.57l4.78-12.79c0.1-0.25,0.28-0.49,0.54-0.69c0.26-0.21,0.58-0.31,0.97-0.31H554.27z"/>
		<path class="st1" d="M566.98,426.13h-4.62v-22.2h4.62V426.13z"/>
		<path class="st1" d="M589.66,408.19c-0.14,0.24-0.29,0.41-0.44,0.51c-0.15,0.11-0.34,0.16-0.57,0.16c-0.22,0-0.47-0.08-0.73-0.24
			c-0.26-0.16-0.56-0.33-0.91-0.51c-0.35-0.18-0.75-0.35-1.19-0.51c-0.45-0.16-0.98-0.24-1.57-0.24c-1.06,0-1.86,0.24-2.39,0.71
			c-0.53,0.47-0.79,1.09-0.79,1.86c0,0.49,0.14,0.89,0.43,1.22c0.29,0.32,0.68,0.6,1.15,0.83c0.47,0.24,1.01,0.45,1.62,0.63
			c0.6,0.18,1.21,0.39,1.85,0.61c0.63,0.22,1.25,0.48,1.85,0.77c0.6,0.3,1.14,0.67,1.62,1.12c0.47,0.45,0.85,1,1.15,1.64
			c0.29,0.65,0.44,1.44,0.44,2.36c0,1.01-0.18,1.96-0.53,2.84c-0.35,0.88-0.86,1.65-1.52,2.31c-0.66,0.66-1.48,1.18-2.46,1.55
			c-0.97,0.38-2.08,0.57-3.31,0.57c-0.7,0-1.4-0.07-2.1-0.21c-0.7-0.14-1.37-0.34-2.02-0.6c-0.65-0.26-1.26-0.56-1.83-0.92
			c-0.57-0.36-1.07-0.75-1.5-1.19l1.35-2.17c0.11-0.16,0.26-0.3,0.44-0.41c0.18-0.11,0.38-0.16,0.58-0.16c0.28,0,0.57,0.1,0.87,0.31
			c0.31,0.2,0.66,0.43,1.05,0.68c0.4,0.24,0.86,0.47,1.39,0.67c0.52,0.2,1.15,0.31,1.89,0.31c1.07,0,1.9-0.25,2.49-0.73
			c0.59-0.49,0.88-1.22,0.88-2.19c0-0.56-0.14-1.02-0.43-1.36c-0.29-0.35-0.67-0.64-1.14-0.87c-0.47-0.24-1-0.44-1.61-0.6
			c-0.6-0.17-1.22-0.35-1.85-0.56c-0.63-0.2-1.25-0.45-1.85-0.73c-0.6-0.29-1.14-0.66-1.61-1.13c-0.47-0.47-0.85-1.05-1.14-1.74
			c-0.29-0.69-0.43-1.55-0.43-2.59c0-0.83,0.16-1.63,0.49-2.4c0.33-0.77,0.81-1.46,1.44-2.06c0.63-0.6,1.41-1.09,2.33-1.45
			c0.92-0.37,1.98-0.55,3.18-0.55c1.33,0,2.57,0.21,3.71,0.62c1.13,0.41,2.1,0.99,2.88,1.72L589.66,408.19z"/>
		<path class="st1" d="M609.5,422.46c0.75,0,1.42-0.12,2.01-0.37c0.59-0.25,1.09-0.6,1.5-1.06c0.41-0.46,0.72-1.01,0.93-1.67
			c0.22-0.65,0.32-1.39,0.32-2.2v-13.22h4.59v13.22c0,1.35-0.22,2.58-0.65,3.71c-0.43,1.13-1.05,2.1-1.86,2.91
			c-0.81,0.82-1.79,1.46-2.94,1.91c-1.15,0.46-2.45,0.69-3.9,0.69c-1.45,0-2.75-0.23-3.91-0.69c-1.16-0.46-2.14-1.1-2.95-1.91
			c-0.81-0.81-1.43-1.79-1.86-2.91c-0.43-1.13-0.65-2.37-0.65-3.71v-13.22h4.59v13.22c0,0.82,0.11,1.55,0.32,2.2
			c0.22,0.65,0.52,1.21,0.93,1.67c0.41,0.46,0.91,0.81,1.5,1.06C608.08,422.34,608.75,422.46,609.5,422.46z"/>
		<path class="st1" d="M647.84,426.13h-3.57c-0.4,0-0.72-0.09-0.97-0.28c-0.25-0.19-0.43-0.43-0.56-0.73l-1.5-4.24h-8.84l-1.5,4.24
			c-0.1,0.26-0.28,0.49-0.54,0.7c-0.26,0.21-0.58,0.31-0.96,0.31h-3.6l8.68-22.2h4.7L647.84,426.13z M640.12,417.7l-2.4-6.8
			c-0.14-0.35-0.29-0.77-0.45-1.25c-0.16-0.48-0.31-1-0.45-1.56c-0.14,0.57-0.29,1.1-0.45,1.58c-0.16,0.48-0.31,0.91-0.45,1.26
			l-2.39,6.76H640.12z"/>
		<path class="st1" d="M669.1,422.4v3.73h-13.17v-22.2h4.59v18.47H669.1z"/>
	</g>
	<polygon class="st2" points="250.91,185.62 209.28,395.11 125.25,359.17 250.91,185.62 	"/>
	<polygon class="st3" points="35.92,235.68 250.91,185.62 63.54,296.55 35.92,235.68 	"/>
	<polygon class="st6" points="120.21,314.65 63.54,296.55 250.91,185.62 120.21,314.65 	"/>
	<polygon class="st5" points="125.25,359.17 120.21,314.65 250.91,185.62 125.25,359.17 	"/>
	<path class="st7" d="M647.19,230.36h-8.98c-5.99,0-11.04,1.97-15.14,5.9c-4.11-3.94-9.16-5.9-15.14-5.9h-9.09
		c-6.42,0-11.76,2.27-16.01,6.81c-4.26,4.54-6.38,10.21-6.38,17v30.25h14.6v-30.25c0-2.65,0.66-4.88,2-6.71
		c1.33-1.82,3.26-2.73,5.79-2.73h9.09c2.52,0,4.45,0.91,5.79,2.73c1.34,1.82,2,4.06,2,6.71v30.25h14.6v-30.25
		c0-2.65,0.69-4.88,2.05-6.71c1.37-1.82,3.32-2.73,5.85-2.73h8.98c2.52,0,4.47,0.93,5.84,2.79c1.37,1.86,2.06,4.08,2.06,6.65v30.25
		h14.5v-30.25c0-6.65-2.07-12.28-6.22-16.9C659.21,232.66,653.82,230.36,647.19,230.36z"/>
	<path class="st7" d="M349.55,216.08h-47.62c-6.45,0-11.95,2.27-16.5,6.82c-4.55,4.55-6.83,9.99-6.83,16.31v45.2h14.51V261.5h56.44
		c6.45,0,12.06-2.2,16.83-6.61c4.76-4.41,7.15-9.77,7.15-16.1c0-6.33-2.38-11.69-7.15-16.1C361.61,218.29,356,216.08,349.55,216.08z
		 M356.22,244.66c-1.86,1.64-4.09,2.45-6.66,2.45h-56.44v-7.89c0-2.42,0.53-4.78,2.25-6.49c1.72-1.71,4.13-2.25,6.57-2.25h47.62
		c2.44,0,4.62,0.78,6.56,2.35c1.93,1.57,2.9,3.55,2.9,5.97C359.01,241.07,358.08,243.02,356.22,244.66z"/>
	<path class="st7" d="M564.23,254.55c-3.54-2.87-8.13-4.31-13.79-4.31h-40.52c-3.53,0-5.3-0.95-5.3-2.84c0-1.96,1.77-2.94,5.3-2.94
		h49.33v-14.1h-49.33c-6.65,0-11.7,1.86-15.17,5.58c-2.9,3.09-4.35,6.91-4.35,11.47c0,5.47,1.91,9.71,5.73,12.73
		c3.54,2.88,8.13,4.31,13.79,4.31h40.52c3.53,0,5.3,0.98,5.3,2.95c0,1.89-1.77,2.84-5.3,2.84h-59.83v14.2h59.83
		c5.66,0,10.25-1.44,13.79-4.32c3.82-3.01,5.73-7.26,5.73-12.73S568.04,257.63,564.23,254.55z"/>
	<path class="st7" d="M458.77,230.37l-12.67,0h-29.67v14.39h42.34c3.73,0,6.49,1.67,8.28,5.01h-45.26c-6.74,0-11.89,1.88-15.48,5.65
		c-2.94,3.2-4.4,7.11-4.4,11.73c0,5.54,1.97,9.84,5.91,12.9c3.58,2.91,8.24,4.37,13.97,4.37h36.98c6.59,0,12.22-2.33,16.88-6.99
		c4.66-4.65,6.99-10.22,6.99-16.68v-6.61c0-6.54-2.33-12.14-6.99-16.79C471,232.7,465.37,230.37,458.77,230.37z M458.77,270.03
		h-36.98c-3.58,0-5.38-0.96-5.38-2.88c0-1.99,1.8-2.99,5.38-2.99h45.69C465.91,268.07,463,270.03,458.77,270.03z"/>
	<path class="st7" d="M749.09,237.35c-4.66-4.65-10.29-6.98-16.88-6.98l-42.28,0v14.39h42.28c3.73,0,6.49,1.67,8.28,5.01h-45.26
		c-6.74,0-11.9,1.88-15.48,5.65c-2.94,3.2-4.41,7.11-4.41,11.73c0,5.54,1.97,9.84,5.91,12.9c3.58,2.91,8.24,4.37,13.98,4.37h36.98
		c6.59,0,12.22-2.33,16.88-6.99c4.66-4.65,6.99-10.22,6.99-16.68v-6.61C756.08,247.61,753.75,242.01,749.09,237.35z M732.21,270.03
		h-36.98c-3.58,0-5.37-0.96-5.37-2.88c0-1.99,1.79-2.99,5.37-2.99h45.69C739.34,268.07,736.44,270.03,732.21,270.03z"/>
	<path class="st7" d="M343.72,307.79H301.8c-6.57,0-12.19,2.33-16.83,6.98c-4.64,4.65-6.97,10.25-6.97,16.79v6.61
		c0,6.47,2.34,12.03,7.02,16.68c4.68,4.66,10.28,6.98,16.78,6.98h32.48c6.58,0,12.2-2.31,16.89-6.93c4.68-4.62,7.02-10.2,7.02-16.74
		v-44.46h-14.47V307.79z M343.72,338.18c0,2.56-0.91,4.74-2.74,6.56c-1.82,1.81-4.05,2.72-6.7,2.72H301.8
		c-2.57,0-4.77-0.9-6.59-2.72c-1.82-1.82-2.73-4-2.73-6.56v-6.61c0-2.56,0.91-4.76,2.73-6.61c1.82-1.85,4.02-2.77,6.59-2.77h41.92
		V338.18z"/>
	<path class="st7" d="M624.49,307.79h-42.26v14.39h42.26c3.72,0,6.47,1.67,8.26,5.01h-45.13c-6.72,0-11.86,1.88-15.44,5.65
		c-2.93,3.2-4.4,7.11-4.4,11.73c0,5.54,1.97,9.84,5.9,12.9c3.58,2.92,8.22,4.37,13.94,4.37h36.88c6.57,0,12.19-2.33,16.83-6.98
		c4.65-4.66,6.97-10.22,6.97-16.68v-6.61c0-6.54-2.32-12.14-6.97-16.79C636.67,310.12,631.06,307.79,624.49,307.79z M624.49,347.45
		h-36.88c-3.58,0-5.36-0.96-5.36-2.87c0-1.99,1.78-2.99,5.36-2.99h45.56C631.6,345.5,628.7,347.45,624.49,347.45z"/>
	<path class="st7" d="M446.89,307.79h-32.48c-6.58,0-12.19,2.33-16.84,6.98c-4.64,4.65-6.97,10.25-6.97,16.79v6.61
		c0,6.47,2.34,12.03,7.02,16.68c4.68,4.66,10.27,6.98,16.78,6.98h41.06c-1.57,3.7-4.43,5.54-8.58,5.54h-25.3v14.39h25.3
		c6.58,0,12.2-2.33,16.89-6.98c4.68-4.66,7.02-10.26,7.02-16.79v-26.44c0-6.54-2.34-12.14-7.02-16.79
		C459.09,310.12,453.46,307.79,446.89,307.79z M456.32,347.45h-41.91c-2.58,0-4.77-0.9-6.6-2.72c-1.82-1.82-2.73-4-2.73-6.56v-6.61
		c0-2.56,0.91-4.76,2.73-6.61c1.82-1.85,4.02-2.77,6.6-2.77h32.48c2.57,0,4.79,0.92,6.65,2.77c1.85,1.85,2.78,4.05,2.78,6.61V347.45
		z"/>
	<polygon class="st7" points="572.03,307.79 500.31,307.79 500.31,322.18 528.97,322.18 528.97,361.84 543.36,361.84 543.36,322.18 
		572.03,322.18 	"/>
	<rect x="655.19" y="293.72" class="st7" width="14.39" height="68.12"/>
	<rect x="380.36" y="216.3" class="st7" width="14.39" height="68.13"/>
	<rect x="478.02" y="307.79" class="st7" width="14.39" height="54.05"/>
	<rect x="368.67" y="307.79" class="st7" width="14.39" height="54.05"/>
</g>
</svg>
