
<style>
    svg{
        width:300px;
    }
</style>
<!-- Generator: Adobe Illustrator 23.0.6, SVG Export Plug-In . SVG Version: 6.00 Build 0)  -->
<svg version="1.1" id="Capa_1" xmlns="http://www.w3.org/2000/svg" xmlns:xlink="http://www.w3.org/1999/xlink" x="0px" y="0px"
	 viewBox="0 0 792 612" style="enable-background:new 0 0 792 612;" xml:space="preserve">
<style type="text/css">
	.st0{fill:#2E353A;}
	.st1{fill:#43A5DD;}
	.st2{fill-rule:evenodd;clip-rule:evenodd;fill:#E30E5A;}
	.st3{fill-rule:evenodd;clip-rule:evenodd;fill:#43A5DD;}
	.st4{fill-rule:evenodd;clip-rule:evenodd;fill:#2E353A;}
	.st5{fill-rule:evenodd;clip-rule:evenodd;fill:#FFEA22;}
	.st6{fill-rule:evenodd;clip-rule:evenodd;fill:#45494D;}
	.st7{fill-rule:evenodd;clip-rule:evenodd;fill:#F3F5F7;}
</style>
<g>
	<g>
		<path class="st1" d="M287.97,401.74c1.49,0,2.77,0.18,3.85,0.52c1.08,0.35,1.97,0.84,2.67,1.46c0.7,0.62,1.21,1.36,1.55,2.22
			c0.33,0.86,0.5,1.79,0.5,2.8c0,1.07-0.18,2.04-0.53,2.93c-0.35,0.89-0.88,1.65-1.59,2.29c-0.71,0.64-1.6,1.13-2.68,1.49
			c-1.08,0.35-2.34,0.53-3.78,0.53h-2.84v7.46h-4.49v-21.7H287.97z M287.97,412.54c1.41,0,2.44-0.34,3.09-1.02
			c0.65-0.68,0.98-1.61,0.98-2.78c0-0.54-0.08-1.03-0.25-1.47c-0.16-0.44-0.41-0.82-0.75-1.14c-0.33-0.31-0.75-0.56-1.26-0.72
			c-0.51-0.17-1.11-0.25-1.81-0.25h-2.84v7.39H287.97z"/>
		<path class="st1" d="M313.9,419.85c0.73,0,1.38-0.12,1.96-0.37c0.58-0.24,1.07-0.59,1.47-1.04c0.4-0.45,0.7-0.99,0.91-1.63
			c0.21-0.64,0.31-1.35,0.31-2.15v-12.92h4.49v12.92c0,1.32-0.21,2.53-0.64,3.63c-0.42,1.1-1.03,2.05-1.82,2.85
			c-0.79,0.8-1.75,1.42-2.87,1.87c-1.13,0.45-2.4,0.67-3.81,0.67c-1.41,0-2.69-0.23-3.82-0.67c-1.13-0.45-2.09-1.07-2.88-1.87
			c-0.79-0.8-1.39-1.75-1.82-2.85c-0.42-1.1-0.64-2.31-0.64-3.63v-12.92h4.49v12.92c0,0.8,0.1,1.52,0.31,2.15
			c0.21,0.64,0.51,1.18,0.91,1.63c0.4,0.45,0.89,0.8,1.47,1.04C312.5,419.73,313.16,419.85,313.9,419.85z"/>
		<path class="st1" d="M340.89,401.74c1.46,0,2.7,0.14,3.73,0.41c1.03,0.27,1.87,0.66,2.53,1.17c0.65,0.5,1.13,1.11,1.43,1.83
			c0.3,0.72,0.45,1.52,0.45,2.41c0,0.5-0.07,0.98-0.22,1.44c-0.15,0.46-0.37,0.89-0.67,1.29c-0.3,0.4-0.7,0.77-1.17,1.1
			c-0.48,0.33-1.05,0.61-1.71,0.84c1.48,0.35,2.57,0.92,3.27,1.7c0.71,0.79,1.06,1.81,1.06,3.07c0,0.92-0.18,1.77-0.53,2.56
			c-0.35,0.79-0.87,1.47-1.55,2.05c-0.68,0.58-1.51,1.03-2.51,1.35c-0.99,0.32-2.13,0.49-3.42,0.49h-8.4v-21.7H340.89z
			 M337.68,405.15v5.86h2.95c0.63,0,1.19-0.05,1.68-0.16c0.49-0.1,0.9-0.27,1.22-0.5c0.33-0.23,0.58-0.53,0.76-0.91
			c0.18-0.37,0.26-0.82,0.26-1.35c0-0.54-0.07-1-0.22-1.37c-0.15-0.38-0.37-0.68-0.67-0.91c-0.3-0.23-0.68-0.4-1.14-0.5
			c-0.46-0.1-1-0.16-1.63-0.16H337.68z M341.52,420c0.72,0,1.31-0.09,1.77-0.26c0.46-0.17,0.84-0.41,1.12-0.7
			c0.28-0.29,0.47-0.62,0.58-0.99c0.11-0.37,0.16-0.76,0.16-1.16c0-0.44-0.07-0.83-0.19-1.18c-0.13-0.35-0.34-0.65-0.63-0.89
			c-0.29-0.24-0.67-0.43-1.13-0.56c-0.46-0.13-1.03-0.19-1.71-0.19h-3.81V420H341.52z"/>
		<path class="st1" d="M371.79,419.79v3.65h-12.88v-21.7h4.49v18.05H371.79z"/>
		<path class="st1" d="M384.58,423.44h-4.52v-21.7h4.52V423.44z"/>
		<path class="st1" d="M409.8,418.1c0.25,0,0.46,0.09,0.63,0.27l1.78,1.9c-0.88,1.12-1.96,1.96-3.27,2.54
			c-1.3,0.58-2.85,0.87-4.65,0.87c-1.62,0-3.09-0.28-4.38-0.83c-1.29-0.55-2.4-1.32-3.3-2.31c-0.91-0.99-1.61-2.16-2.09-3.51
			c-0.49-1.36-0.73-2.84-0.73-4.44c0-1.08,0.12-2.1,0.35-3.07c0.23-0.97,0.57-1.87,1.02-2.68c0.45-0.82,0.99-1.56,1.62-2.21
			c0.63-0.66,1.35-1.22,2.15-1.68c0.8-0.46,1.67-0.82,2.61-1.06c0.94-0.24,1.95-0.37,3.02-0.37c0.8,0,1.55,0.07,2.27,0.21
			c0.71,0.14,1.38,0.33,2,0.58c0.62,0.25,1.19,0.55,1.71,0.91c0.52,0.35,0.99,0.74,1.41,1.16l-1.51,2.06
			c-0.09,0.13-0.2,0.24-0.34,0.34c-0.14,0.1-0.33,0.15-0.57,0.15c-0.24,0-0.48-0.09-0.72-0.25c-0.24-0.17-0.54-0.36-0.9-0.57
			c-0.35-0.21-0.8-0.4-1.33-0.57c-0.53-0.17-1.21-0.26-2.03-0.26c-0.91,0-1.74,0.16-2.5,0.49c-0.76,0.33-1.41,0.81-1.95,1.43
			c-0.54,0.62-0.97,1.39-1.27,2.29c-0.3,0.91-0.45,1.94-0.45,3.1c0,1.17,0.16,2.21,0.49,3.12c0.32,0.91,0.77,1.68,1.33,2.31
			c0.56,0.63,1.22,1.1,1.98,1.43c0.75,0.32,1.56,0.49,2.41,0.49c0.51,0,0.97-0.03,1.38-0.08c0.41-0.05,0.8-0.13,1.15-0.25
			c0.35-0.12,0.69-0.27,1-0.46c0.31-0.19,0.63-0.43,0.95-0.72c0.11-0.09,0.23-0.16,0.34-0.23
			C409.53,418.13,409.66,418.1,409.8,418.1z"/>
		<path class="st1" d="M424.9,423.44h-4.52v-21.7h4.52V423.44z"/>
		<path class="st1" d="M454.71,412.58c0,1.59-0.27,3.04-0.8,4.38c-0.54,1.33-1.29,2.48-2.26,3.43c-0.97,0.96-2.14,1.71-3.51,2.24
			c-1.37,0.54-2.88,0.81-4.55,0.81h-8.35v-21.7h8.35c1.66,0,3.18,0.27,4.55,0.81c1.37,0.54,2.53,1.29,3.51,2.25
			c0.97,0.96,1.72,2.11,2.26,3.43C454.45,409.55,454.71,411,454.71,412.58z M450.11,412.58c0-1.14-0.15-2.16-0.45-3.07
			c-0.3-0.91-0.73-1.68-1.29-2.3c-0.56-0.63-1.24-1.11-2.04-1.45c-0.8-0.34-1.71-0.51-2.73-0.51h-3.83v14.67h3.83
			c1.02,0,1.93-0.17,2.73-0.5c0.8-0.33,1.48-0.82,2.04-1.45c0.56-0.63,0.99-1.4,1.29-2.31
			C449.96,414.75,450.11,413.73,450.11,412.58z"/>
		<path class="st1" d="M481.99,423.44h-3.49c-0.39,0-0.7-0.09-0.95-0.28c-0.24-0.18-0.43-0.42-0.55-0.71l-1.46-4.14h-8.64
			l-1.47,4.14c-0.1,0.25-0.28,0.48-0.53,0.68c-0.25,0.2-0.56,0.31-0.94,0.31h-3.52l8.48-21.7h4.59L481.99,423.44z M474.45,415.2
			l-2.35-6.64c-0.14-0.35-0.29-0.76-0.44-1.23c-0.15-0.47-0.3-0.98-0.44-1.53c-0.14,0.56-0.29,1.08-0.44,1.55
			c-0.15,0.47-0.3,0.89-0.44,1.23l-2.33,6.61H474.45z"/>
		<path class="st1" d="M509.35,412.58c0,1.59-0.27,3.04-0.8,4.38c-0.53,1.33-1.29,2.48-2.26,3.43c-0.97,0.96-2.14,1.71-3.51,2.24
			c-1.37,0.54-2.88,0.81-4.55,0.81h-8.35v-21.7h8.35c1.66,0,3.18,0.27,4.55,0.81c1.37,0.54,2.53,1.29,3.51,2.25
			c0.97,0.96,1.72,2.11,2.26,3.43C509.09,409.55,509.35,411,509.35,412.58z M504.75,412.58c0-1.14-0.15-2.16-0.45-3.07
			c-0.3-0.91-0.73-1.68-1.29-2.3c-0.56-0.63-1.24-1.11-2.04-1.45c-0.8-0.34-1.71-0.51-2.73-0.51h-3.83v14.67h3.83
			c1.02,0,1.93-0.17,2.73-0.5c0.8-0.33,1.48-0.82,2.04-1.45c0.56-0.63,0.99-1.4,1.29-2.31C504.6,414.75,504.75,413.73,504.75,412.58
			z"/>
		<path class="st1" d="M550.72,401.74l-8.73,21.7h-4.07l-8.73-21.7h3.62c0.39,0,0.71,0.09,0.95,0.28c0.25,0.18,0.43,0.42,0.55,0.71
			l4.7,12.5c0.18,0.47,0.36,0.98,0.53,1.53c0.18,0.55,0.34,1.14,0.49,1.74c0.13-0.61,0.27-1.19,0.43-1.74
			c0.15-0.55,0.32-1.06,0.5-1.53l4.67-12.5c0.1-0.25,0.27-0.48,0.53-0.68c0.25-0.21,0.57-0.31,0.95-0.31H550.72z"/>
		<path class="st1" d="M563.15,423.44h-4.51v-21.7h4.51V423.44z"/>
		<path class="st1" d="M585.32,405.9c-0.14,0.23-0.28,0.4-0.43,0.5c-0.15,0.1-0.33,0.16-0.56,0.16c-0.22,0-0.46-0.08-0.71-0.23
			c-0.26-0.15-0.55-0.32-0.89-0.5c-0.34-0.18-0.73-0.35-1.17-0.5c-0.44-0.15-0.95-0.23-1.54-0.23c-1.04,0-1.82,0.23-2.33,0.69
			c-0.52,0.46-0.78,1.07-0.78,1.82c0,0.48,0.14,0.87,0.43,1.19c0.28,0.31,0.66,0.59,1.12,0.82c0.46,0.23,0.99,0.43,1.58,0.61
			c0.59,0.18,1.19,0.38,1.81,0.59c0.62,0.21,1.22,0.47,1.81,0.75c0.59,0.29,1.11,0.65,1.58,1.09c0.46,0.44,0.84,0.97,1.12,1.61
			c0.28,0.63,0.43,1.4,0.43,2.31c0,0.99-0.17,1.91-0.52,2.77c-0.34,0.86-0.84,1.62-1.49,2.26c-0.65,0.64-1.45,1.15-2.4,1.52
			c-0.95,0.37-2.03,0.55-3.24,0.55c-0.69,0-1.37-0.07-2.06-0.21c-0.68-0.14-1.34-0.33-1.97-0.58c-0.63-0.25-1.23-0.55-1.79-0.9
			c-0.56-0.35-1.05-0.74-1.47-1.17l1.32-2.12c0.11-0.16,0.25-0.29,0.43-0.4c0.18-0.1,0.37-0.16,0.57-0.16c0.27,0,0.55,0.1,0.85,0.3
			c0.3,0.2,0.64,0.42,1.03,0.66c0.39,0.24,0.84,0.46,1.36,0.66c0.51,0.2,1.13,0.3,1.84,0.3c1.05,0,1.86-0.24,2.43-0.72
			c0.57-0.48,0.86-1.19,0.86-2.14c0-0.55-0.14-0.99-0.43-1.33c-0.28-0.34-0.66-0.62-1.12-0.85c-0.46-0.23-0.98-0.43-1.57-0.59
			c-0.59-0.16-1.19-0.35-1.81-0.55c-0.62-0.2-1.22-0.44-1.81-0.72c-0.59-0.28-1.11-0.65-1.57-1.11c-0.46-0.46-0.83-1.03-1.12-1.7
			c-0.28-0.68-0.42-1.52-0.42-2.53c0-0.81,0.16-1.59,0.48-2.35c0.32-0.76,0.79-1.43,1.41-2.02c0.62-0.59,1.38-1.06,2.28-1.42
			c0.9-0.36,1.94-0.54,3.1-0.54c1.3,0,2.51,0.2,3.63,0.61c1.11,0.4,2.05,0.97,2.82,1.68L585.32,405.9z"/>
		<path class="st1" d="M604.72,419.85c0.73,0,1.38-0.12,1.96-0.37c0.58-0.24,1.07-0.59,1.47-1.04c0.4-0.45,0.7-0.99,0.91-1.63
			c0.21-0.64,0.31-1.35,0.31-2.15v-12.92h4.49v12.92c0,1.32-0.21,2.53-0.63,3.63c-0.42,1.1-1.03,2.05-1.82,2.85
			c-0.79,0.8-1.75,1.42-2.87,1.87c-1.13,0.45-2.4,0.67-3.81,0.67c-1.42,0-2.69-0.23-3.82-0.67c-1.13-0.45-2.09-1.07-2.88-1.87
			c-0.79-0.8-1.39-1.75-1.82-2.85c-0.42-1.1-0.63-2.31-0.63-3.63v-12.92h4.49v12.92c0,0.8,0.11,1.52,0.31,2.15
			c0.21,0.64,0.51,1.18,0.91,1.63c0.4,0.45,0.89,0.8,1.47,1.04C603.32,419.73,603.98,419.85,604.72,419.85z"/>
		<path class="st1" d="M642.19,423.44h-3.49c-0.39,0-0.7-0.09-0.95-0.28c-0.24-0.18-0.42-0.42-0.54-0.71l-1.47-4.14h-8.64
			l-1.46,4.14c-0.1,0.25-0.28,0.48-0.53,0.68c-0.25,0.2-0.56,0.31-0.94,0.31h-3.52l8.48-21.7h4.59L642.19,423.44z M634.65,415.2
			l-2.35-6.64c-0.14-0.35-0.29-0.76-0.44-1.23c-0.16-0.47-0.3-0.98-0.44-1.53c-0.14,0.56-0.29,1.08-0.44,1.55
			c-0.16,0.47-0.3,0.89-0.44,1.23l-2.33,6.61H634.65z"/>
		<path class="st1" d="M662.97,419.79v3.65H650.1v-21.7h4.49v18.05H662.97z"/>
	</g>
	<polygon class="st2" points="254.17,188.32 213.47,393.11 131.33,357.98 254.17,188.32 	"/>
	<polygon class="st3" points="44,237.26 254.17,188.32 70.99,296.76 44,237.26 	"/>
	<polygon class="st4" points="126.39,314.46 70.99,296.76 254.17,188.32 126.39,314.46 	"/>
	<polygon class="st5" points="131.33,357.98 126.39,314.46 254.17,188.32 131.33,357.98 	"/>
	<path class="st4" d="M641.55,232.05h-8.78c-5.85,0-10.79,1.92-14.81,5.77c-4.02-3.85-8.95-5.77-14.8-5.77h-8.88
		c-6.27,0-11.49,2.22-15.65,6.66c-4.16,4.44-6.24,9.98-6.24,16.62v29.57h14.27v-29.57c0-2.59,0.65-4.77,1.96-6.55
		c1.3-1.78,3.19-2.67,5.66-2.67h8.88c2.47,0,4.35,0.89,5.65,2.67c1.31,1.78,1.96,3.97,1.96,6.55v29.57h14.27v-29.57
		c0-2.59,0.67-4.77,2.01-6.55c1.34-1.78,3.25-2.67,5.71-2.67h8.78c2.47,0,4.37,0.91,5.71,2.73c1.34,1.82,2.01,3.98,2.01,6.5v29.57
		h14.17v-29.57c0-6.5-2.03-12.01-6.08-16.52C653.31,234.31,648.04,232.05,641.55,232.05z"/>
	<path class="st4" d="M350.59,218.1h-46.56c-6.31,0-11.68,2.22-16.13,6.67c-4.45,4.45-6.67,9.76-6.67,15.95v44.19h14.19V262.5h55.17
		c6.31,0,11.79-2.15,16.45-6.46c4.66-4.31,6.99-9.55,6.99-15.74c0-6.18-2.33-11.43-6.99-15.74
		C362.38,220.25,356.9,218.1,350.59,218.1z M357.11,246.03c-1.82,1.6-3.99,2.4-6.52,2.4h-55.17v-7.71c0-2.36,0.52-4.68,2.2-6.34
		c1.68-1.67,4.03-2.2,6.42-2.2h46.56c2.38,0,4.52,0.76,6.41,2.29c1.89,1.53,2.84,3.47,2.84,5.84
		C359.84,242.52,358.93,244.43,357.11,246.03z"/>
	<path class="st4" d="M560.45,255.7c-3.46-2.81-7.95-4.22-13.48-4.22h-39.61c-3.46,0-5.18-0.93-5.18-2.78
		c0-1.92,1.73-2.88,5.18-2.88h48.22v-13.78h-48.22c-6.5,0-11.44,1.82-14.83,5.45c-2.83,3.02-4.25,6.75-4.25,11.21
		c0,5.35,1.87,9.5,5.6,12.44c3.46,2.81,7.95,4.22,13.48,4.22h39.61c3.45,0,5.18,0.96,5.18,2.88c0,1.85-1.73,2.78-5.18,2.78h-58.49
		v13.88h58.49c5.53,0,10.02-1.41,13.48-4.22c3.73-2.95,5.6-7.1,5.6-12.44S564.19,258.72,560.45,255.7z"/>
	<path class="st4" d="M457.37,232.07l-12.38,0h-29.01v14.07h41.39c3.64,0,6.34,1.63,8.09,4.9h-44.24c-6.59,0-11.63,1.84-15.14,5.52
		c-2.87,3.13-4.31,6.95-4.31,11.47c0,5.42,1.92,9.62,5.78,12.61c3.5,2.85,8.06,4.27,13.66,4.27h36.15c6.45,0,11.95-2.28,16.5-6.83
		c4.55-4.55,6.83-9.99,6.83-16.31v-6.46c0-6.39-2.28-11.86-6.83-16.41C469.31,234.34,463.81,232.07,457.37,232.07z M457.37,270.84
		h-36.15c-3.5,0-5.26-0.94-5.26-2.81c0-1.95,1.75-2.92,5.26-2.92h44.66C464.34,268.93,461.5,270.84,457.37,270.84z"/>
	<path class="st4" d="M741.17,238.89c-4.55-4.55-10.05-6.83-16.5-6.83l-41.33,0v14.07h41.33c3.64,0,6.34,1.63,8.09,4.9h-44.24
		c-6.58,0-11.63,1.84-15.13,5.52c-2.88,3.13-4.31,6.95-4.31,11.47c0,5.42,1.93,9.62,5.78,12.61c3.5,2.85,8.06,4.27,13.66,4.27h36.15
		c6.45,0,11.95-2.28,16.5-6.83c4.55-4.55,6.83-9.99,6.83-16.31v-6.46C748,248.92,745.73,243.44,741.17,238.89z M724.67,270.84
		h-36.15c-3.5,0-5.25-0.94-5.25-2.81c0-1.95,1.75-2.92,5.25-2.92h44.67C731.64,268.93,728.8,270.84,724.67,270.84z"/>
	<path class="st4" d="M344.89,307.75h-40.98c-6.43,0-11.91,2.27-16.45,6.83c-4.54,4.55-6.81,10.02-6.81,16.41v6.46
		c0,6.32,2.29,11.76,6.86,16.31c4.58,4.55,10.04,6.83,16.4,6.83h31.75c6.43,0,11.93-2.26,16.51-6.78c4.58-4.52,6.86-9.97,6.86-16.36
		v-43.46h-14.15V307.75z M344.89,337.46c0,2.5-0.89,4.64-2.67,6.41c-1.78,1.77-3.96,2.66-6.55,2.66h-31.75
		c-2.52,0-4.66-0.88-6.45-2.66c-1.78-1.77-2.67-3.91-2.67-6.41v-6.46c0-2.5,0.89-4.66,2.67-6.46c1.78-1.81,3.93-2.71,6.45-2.71
		h40.98V337.46z"/>
	<path class="st4" d="M619.36,307.75h-41.31v14.07h41.31c3.63,0,6.33,1.63,8.07,4.9h-44.12c-6.57,0-11.6,1.84-15.09,5.52
		c-2.87,3.13-4.3,6.95-4.3,11.47c0,5.42,1.92,9.62,5.76,12.61c3.5,2.85,8.04,4.27,13.63,4.27h36.05c6.43,0,11.91-2.27,16.46-6.83
		c4.54-4.55,6.81-9.99,6.81-16.31v-6.46c0-6.39-2.27-11.86-6.81-16.41C631.27,310.03,625.79,307.75,619.36,307.75z M619.36,346.52
		h-36.05c-3.5,0-5.24-0.94-5.24-2.81c0-1.95,1.75-2.92,5.24-2.92h44.54C626.31,344.61,623.48,346.52,619.36,346.52z"/>
	<path class="st4" d="M445.75,307.75h-31.75c-6.43,0-11.91,2.27-16.46,6.83c-4.54,4.55-6.81,10.02-6.81,16.41v6.46
		c0,6.32,2.29,11.76,6.86,16.31c4.57,4.55,10.04,6.83,16.4,6.83h40.14c-1.54,3.61-4.33,5.42-8.39,5.42h-24.73v14.07h24.73
		c6.43,0,11.93-2.27,16.51-6.82c4.57-4.55,6.86-10.03,6.86-16.42v-25.85c0-6.39-2.29-11.86-6.86-16.41
		C457.67,310.03,452.17,307.75,445.75,307.75z M454.97,346.52h-40.97c-2.52,0-4.67-0.88-6.45-2.66c-1.78-1.77-2.67-3.91-2.67-6.41
		v-6.46c0-2.5,0.89-4.66,2.67-6.46c1.78-1.81,3.93-2.71,6.45-2.71h31.75c2.51,0,4.68,0.9,6.5,2.71c1.81,1.8,2.72,3.96,2.72,6.46
		V346.52z"/>
	<polygon class="st4" points="568.08,307.75 497.97,307.75 497.97,321.82 525.99,321.82 525.99,360.59 540.06,360.59 540.06,321.82 
		568.08,321.82 	"/>
	<rect x="649.37" y="294" class="st4" width="14.07" height="66.6"/>
	<rect x="380.71" y="218.31" class="st4" width="14.07" height="66.6"/>
	<rect x="476.18" y="307.75" class="st4" width="14.07" height="52.84"/>
	<rect x="369.28" y="307.75" class="st4" width="14.07" height="52.84"/>
</g>
</svg>
